<svg id="visual" viewBox="0 0 900 600" width="900" height="600" xmlns="http://www.w3.org/2000/svg" xmlns:xlink="http://www.w3.org/1999/xlink" version="1.1">
  <path d="M0 202L16.7 199.3C33.3 196.7 66.7 191.3 100 179C133.3 166.7 166.7 147.3 200 141.3C233.3 135.3 266.7 142.7 300 158.5C333.3 174.3 366.7 198.7 400 207.2C433.3 215.7 466.7 208.3 500 198.8C533.3 189.3 566.7 177.7 600 184.5C633.3 191.3 666.7 216.7 700 218.2C733.3 219.7 766.7 197.3 800 177.3C833.3 157.3 866.7 139.7 883.3 130.8L900 122L900 601L883.3 601C866.7 601 833.3 601 800 601C766.7 601 733.3 601 700 601C666.7 601 633.3 601 600 601C566.7 601 533.3 601 500 601C466.7 601 433.3 601 400 601C366.7 601 333.3 601 300 601C266.7 601 233.3 601 200 601C166.7 601 133.3 601 100 601C66.7 601 33.3 601 16.7 601L0 601Z" fill="#aa00ff"></path>
</svg>