<svg id="visual" viewBox="0 0 900 600" width="900" height="600" xmlns="http://www.w3.org/2000/svg" xmlns:xlink="http://www.w3.org/1999/xlink" version="1.1"><g>
  <g transform="translate(126 160)"><path d="M46 -25.4C56.2 -9 58.6 13.1 49.6 31.3C40.6 49.5 20.3 63.7 -1.1 64.3C-22.5 65 -45 52 -58 31.5C-70.9 11 -74.3 -16.9 -63.1 -34C-51.8 -51.1 -25.9 -57.3 -4 -55C17.9 -52.7 35.8 -41.9 46 -25.4Z" fill="#aa52b4"></path></g>
  <g transform="translate(789 288)"><path d="M34.3 -17.4C41.3 -7.6 41.7 8.3 34.9 19.4C28.1 30.5 14 36.6 1.1 36C-11.8 35.3 -23.6 27.9 -28.7 17.8C-33.8 7.7 -32.3 -5.1 -26.4 -14.1C-20.5 -23.2 -10.3 -28.6 1.7 -29.5C13.6 -30.5 27.3 -27.1 34.3 -17.4Z" fill="#aa52b4"></path></g>
  <g transform="translate(671 123)"><path d="M52.3 -30.2C63.3 -11.1 64.7 13.5 54.4 30.5C44 47.5 22 56.9 2.2 55.6C-17.6 54.3 -35.2 42.4 -44.9 25.8C-54.6 9.2 -56.3 -12.2 -47.5 -30C-38.7 -47.8 -19.4 -62 0.6 -62.4C20.6 -62.8 41.3 -49.3 52.3 -30.2Z" fill="#aa52b4"></path></g>
  <g transform="translate(408 160)"><path d="M41.9 -24.3C50.1 -9.9 49.7 9.3 41.3 25.6C32.9 41.9 16.5 55.4 0 55.4C-16.5 55.4 -32.9 41.9 -42.3 25.1C-51.6 8.2 -53.9 -12.1 -45.6 -26.5C-37.4 -40.9 -18.7 -49.4 -0.9 -48.8C16.8 -48.3 33.6 -38.7 41.9 -24.3Z" fill="#aa52b4"></path></g>
</g></svg>