<svg id="visual" viewBox="0 0 900 600" width="900" height="600" xmlns="http://www.w3.org/2000/svg" xmlns:xlink="http://www.w3.org/1999/xlink" version="1.1">
  <path d="M0 216L100 177L200 208L300 166L400 227L500 151L600 235L700 220L800 180L900 151L900 601L800 601L700 601L600 601L500 601L400 601L300 601L200 601L100 601L0 601Z" fill="#aa00ff"></path>
  <path d="M0 252L100 305L200 210L300 319L400 290L500 298L600 268L700 272L800 210L900 278L900 601L800 601L700 601L600 601L500 601L400 601L300 601L200 601L100 601L0 601Z" fill="#b500f3"></path>
  <path d="M0 368L100 333L200 308L300 365L400 315L500 379L600 356L700 362L800 381L900 356L900 601L800 601L700 601L600 601L500 601L400 601L300 601L200 601L100 601L0 601Z" fill="#be00e8"></path>
  <path d="M0 422L100 470L200 457L300 430L400 477L500 406L600 465L700 444L800 435L900 404L900 601L800 601L700 601L600 601L500 601L400 601L300 601L200 601L100 601L0 601Z" fill="#c500dd"></path>
  <path d="M0 530L100 537L200 532L300 491L400 517L500 547L600 511L700 497L800 525L900 472L900 601L800 601L700 601L600 601L500 601L400 601L300 601L200 601L100 601L0 601Z" fill="#cb00d2"></path>
</svg>