<svg id="visual" viewBox="0 0 900 600" width="900" height="600" xmlns="http://www.w3.org/2000/svg" xmlns:xlink="http://www.w3.org/1999/xlink" version="1.1">
  <path d="M0 202L16.7 199.3C33.3 196.7 66.7 191.3 100 179C133.3 166.7 166.7 147.3 200 141.3C233.3 135.3 266.7 142.7 300 158.5C333.3 174.3 366.7 198.7 400 207.2C433.3 215.7 466.7 208.3 500 198.8C533.3 189.3 566.7 177.7 600 184.5C633.3 191.3 666.7 216.7 700 218.2C733.3 219.7 766.7 197.3 800 177.3C833.3 157.3 866.7 139.7 883.3 130.8L900 122L900 601L883.3 601C866.7 601 833.3 601 800 601C766.7 601 733.3 601 700 601C666.7 601 633.3 601 600 601C566.7 601 533.3 601 500 601C466.7 601 433.3 601 400 601C366.7 601 333.3 601 300 601C266.7 601 233.3 601 200 601C166.7 601 133.3 601 100 601C66.7 601 33.3 601 16.7 601L0 601Z" fill="#aa00ff"></path>
  <path d="M0 324L16.7 317.2C33.3 310.3 66.7 296.7 100 292.7C133.3 288.7 166.7 294.3 200 293C233.3 291.7 266.7 283.3 300 274C333.3 264.7 366.7 254.3 400 254C433.3 253.7 466.7 263.3 500 263.2C533.3 263 566.7 253 600 242.5C633.3 232 666.7 221 700 226.7C733.3 232.3 766.7 254.7 800 264.2C833.3 273.7 866.7 270.3 883.3 268.7L900 267L900 601L883.3 601C866.7 601 833.3 601 800 601C766.7 601 733.3 601 700 601C666.7 601 633.3 601 600 601C566.7 601 533.3 601 500 601C466.7 601 433.3 601 400 601C366.7 601 333.3 601 300 601C266.7 601 233.3 601 200 601C166.7 601 133.3 601 100 601C66.7 601 33.3 601 16.7 601L0 601Z" fill="#bf00ff"></path>
  <path d="M0 369L16.7 368.7C33.3 368.3 66.7 367.7 100 361C133.3 354.3 166.7 341.7 200 335C233.3 328.3 266.7 327.7 300 332.5C333.3 337.3 366.7 347.7 400 345.7C433.3 343.7 466.7 329.3 500 333C533.3 336.7 566.7 358.3 600 359.3C633.3 360.3 666.7 340.7 700 342.2C733.3 343.7 766.7 366.3 800 374.7C833.3 383 866.7 377 883.3 374L900 371L900 601L883.3 601C866.7 601 833.3 601 800 601C766.7 601 733.3 601 700 601C666.7 601 633.3 601 600 601C566.7 601 533.3 601 500 601C466.7 601 433.3 601 400 601C366.7 601 333.3 601 300 601C266.7 601 233.3 601 200 601C166.7 601 133.3 601 100 601C66.7 601 33.3 601 16.7 601L0 601Z" fill="#d300ff"></path>
  <path d="M0 472L16.7 459.7C33.3 447.3 66.7 422.7 100 410C133.3 397.3 166.7 396.7 200 396.5C233.3 396.3 266.7 396.7 300 395.7C333.3 394.7 366.7 392.3 400 403.8C433.3 415.3 466.7 440.7 500 454C533.3 467.3 566.7 468.7 600 461.8C633.3 455 666.7 440 700 439.7C733.3 439.3 766.7 453.7 800 456C833.3 458.3 866.7 448.7 883.3 443.8L900 439L900 601L883.3 601C866.7 601 833.3 601 800 601C766.7 601 733.3 601 700 601C666.7 601 633.3 601 600 601C566.7 601 533.3 601 500 601C466.7 601 433.3 601 400 601C366.7 601 333.3 601 300 601C266.7 601 233.3 601 200 601C166.7 601 133.3 601 100 601C66.7 601 33.3 601 16.7 601L0 601Z" fill="#e500ff"></path>
  <path d="M0 523L16.7 517.2C33.3 511.3 66.7 499.7 100 493.3C133.3 487 166.7 486 200 493.5C233.3 501 266.7 517 300 519C333.3 521 366.7 509 400 511.2C433.3 513.3 466.7 529.7 500 527.2C533.3 524.7 566.7 503.3 600 495.2C633.3 487 666.7 492 700 497.7C733.3 503.3 766.7 509.7 800 518.2C833.3 526.7 866.7 537.3 883.3 542.7L900 548L900 601L883.3 601C866.7 601 833.3 601 800 601C766.7 601 733.3 601 700 601C666.7 601 633.3 601 600 601C566.7 601 533.3 601 500 601C466.7 601 433.3 601 400 601C366.7 601 333.3 601 300 601C266.7 601 233.3 601 200 601C166.7 601 133.3 601 100 601C66.7 601 33.3 601 16.7 601L0 601Z" fill="#f700ff"></path>
</svg>