<svg id="visual" viewBox="0 0 900 600" width="900" height="600" xmlns="http://www.w3.org/2000/svg" xmlns:xlink="http://www.w3.org/1999/xlink" version="1.1">
  <path d="M0 369L16.7 368.7C33.3 368.3 66.7 367.7 100 361C133.3 354.3 166.7 341.7 200 335C233.3 328.3 266.7 327.7 300 332.5C333.3 337.3 366.7 347.7 400 345.7C433.3 343.7 466.7 329.3 500 333C533.3 336.7 566.7 358.3 600 359.3C633.3 360.3 666.7 340.7 700 342.2C733.3 343.7 766.7 366.3 800 374.7C833.3 383 866.7 377 883.3 374L900 371L900 601L883.3 601C866.7 601 833.3 601 800 601C766.7 601 733.3 601 700 601C666.7 601 633.3 601 600 601C566.7 601 533.3 601 500 601C466.7 601 433.3 601 400 601C366.7 601 333.3 601 300 601C266.7 601 233.3 601 200 601C166.7 601 133.3 601 100 601C66.7 601 33.3 601 16.7 601L0 601Z" fill="#d300ff"></path>
</svg>