<svg id="visual" viewBox="0 0 900 600" width="900" height="600" xmlns="http://www.w3.org/2000/svg" xmlns:xlink="http://www.w3.org/1999/xlink" version="1.1">
  <path d="M0 472L16.7 459.7C33.3 447.3 66.7 422.7 100 410C133.3 397.3 166.7 396.7 200 396.5C233.3 396.3 266.7 396.7 300 395.7C333.3 394.7 366.7 392.3 400 403.8C433.3 415.3 466.7 440.7 500 454C533.3 467.3 566.7 468.7 600 461.8C633.3 455 666.7 440 700 439.7C733.3 439.3 766.7 453.7 800 456C833.3 458.3 866.7 448.7 883.3 443.8L900 439L900 601L883.3 601C866.7 601 833.3 601 800 601C766.7 601 733.3 601 700 601C666.7 601 633.3 601 600 601C566.7 601 533.3 601 500 601C466.7 601 433.3 601 400 601C366.7 601 333.3 601 300 601C266.7 601 233.3 601 200 601C166.7 601 133.3 601 100 601C66.7 601 33.3 601 16.7 601L0 601Z" fill="#e500ff"></path>
</svg>