<svg id="visual" viewBox="0 0 900 600" width="900" height="600" xmlns="http://www.w3.org/2000/svg" xmlns:xlink="http://www.w3.org/1999/xlink" version="1.1">
  <path d="M0 324L16.7 317.2C33.3 310.3 66.7 296.7 100 292.7C133.3 288.7 166.7 294.3 200 293C233.3 291.7 266.7 283.3 300 274C333.3 264.7 366.7 254.3 400 254C433.3 253.7 466.7 263.3 500 263.2C533.3 263 566.7 253 600 242.5C633.3 232 666.7 221 700 226.7C733.3 232.3 766.7 254.7 800 264.2C833.3 273.7 866.7 270.3 883.3 268.7L900 267L900 601L883.3 601C866.7 601 833.3 601 800 601C766.7 601 733.3 601 700 601C666.7 601 633.3 601 600 601C566.7 601 533.3 601 500 601C466.7 601 433.3 601 400 601C366.7 601 333.3 601 300 601C266.7 601 233.3 601 200 601C166.7 601 133.3 601 100 601C66.7 601 33.3 601 16.7 601L0 601Z" fill="#bf00ff"></path>
</svg>