<svg id="visual" viewBox="0 0 900 600" width="900" height="600" xmlns="http://www.w3.org/2000/svg" xmlns:xlink="http://www.w3.org/1999/xlink" version="1.1">
  <path d="M0 523L16.7 517.2C33.3 511.3 66.7 499.7 100 493.3C133.3 487 166.7 486 200 493.5C233.3 501 266.7 517 300 519C333.3 521 366.7 509 400 511.2C433.3 513.3 466.7 529.7 500 527.2C533.3 524.7 566.7 503.3 600 495.2C633.3 487 666.7 492 700 497.7C733.3 503.3 766.7 509.7 800 518.2C833.3 526.7 866.7 537.3 883.3 542.7L900 548L900 601L883.3 601C866.7 601 833.3 601 800 601C766.7 601 733.3 601 700 601C666.7 601 633.3 601 600 601C566.7 601 533.3 601 500 601C466.7 601 433.3 601 400 601C366.7 601 333.3 601 300 601C266.7 601 233.3 601 200 601C166.7 601 133.3 601 100 601C66.7 601 33.3 601 16.7 601L0 601Z" fill="#f700ff"></path>
</svg>